<svg xmlns="http://www.w3.org/2000/svg" width="512" height="512" viewBox="0 0 512 512" fill="#1d2739">
	<path d="M364.08,208.1417H343.8057v49.2665h66.2882l-45.75-48.985Zm-18.5,47.4923V209.9159h17.73l42.7,45.7181Z"/>
	<path d="M421.5979,289.5623V284.55h12.6728v-5.0724a7.3594,7.3594,0,0,0-1.9466-5.0477l-85.27-91.3153A6.5588,6.5588,0,0,0,342.2754,181H82.5242a4.9262,4.9262,0,0,0-4.7771,5.0523v84.9292H84.059v18.5808H77.725v23.8593a4.926,4.926,0,0,0,4.7772,5.052h50.8456v-.8871c0-8.8635,6.7076-16.0744,14.9526-16.0744s14.9525,7.2109,14.9525,16.0744v.8871H374.0877v-.8871c0-8.8635,6.7058-16.0744,14.9481-16.0744,8.245,0,14.9526,7.2109,14.9526,16.0744v.8871h23.0653a7.4638,7.4638,0,0,0,7.2213-7.6692V289.5623Zm10.9029,21.2421a5.6908,5.6908,0,0,1-5.4471,5.895H405.7423c-.4345-9.4314-7.762-16.9616-16.7065-16.9616-8.9423,0-16.2676,7.53-16.702,16.9616H165.0068c-.4347-9.4314-7.7619-16.9616-16.7064-16.9616s-16.2718,7.53-16.7065,16.9616H82.5022a3.1532,3.1532,0,0,1-3.003-3.2778V291.3365h6.334V269.2073H79.5213v-83.155a3.153,3.153,0,0,1,3.0029-3.278H342.27a4.7782,4.7782,0,0,1,3.4818,1.5457l85.27,91.3155a5.59,5.59,0,0,1,1.4746,3.8357v3.3046H419.8237v8.5607h12.6771Z"/>
	<rect x="318.2874" y="210.16" width="2.9897" height="94.1109"/>
	<path d="M148.4734,303.7122a13.6439,13.6439,0,1,0,13.6439,13.6439A13.6594,13.6594,0,0,0,148.4734,303.7122Zm0,25.5135a11.87,11.87,0,1,1,11.87-11.87A11.883,11.883,0,0,1,148.4734,329.2257Z"/>
	<path d="M389.0358,303.7122a13.6439,13.6439,0,1,0,13.644,13.6439A13.6594,13.6594,0,0,0,389.0358,303.7122Zm0,25.5135a11.87,11.87,0,1,1,11.87-11.87A11.8828,11.8828,0,0,1,389.0358,329.2257Z"/>
</svg>