<svg xmlns="http://www.w3.org/2000/svg" width="512" height="512" viewBox="0 0 512 512" fill="#1d2739"><path d="M508.8113,245.5823H416.746a3.1887,3.1887,0,0,0-3.1887,3.1888v1.5753h-30.146s-50.9892-.2695-53.1374.1161c-.0211-.0057-.04-.0154-.0614-.0208L253.26,230.2648v-91.02a2.1511,2.1511,0,0,0-.6349-1.8923c-.8256-.5886-23.8531-9.3106-23.8531-9.3106l-20.8237-7.6327a3.1837,3.1837,0,0,0-1.0968-.1949s-141.819.1821-142.503.394a2.4508,2.4508,0,0,0-1.1432,1.1247l-.4592,134.9782a3.1892,3.1892,0,0,0,2.18,3.0253s47.979,15.9651,48.0592,15.98c.1812.0334,83.4218.0575,83.4218.0575l-75.8956,28.11-32.5128-27.567a19.2,19.2,0,0,0-25.5961.8819s-20.4219-11.61-33.3173,5.1965c-9.4257-3.4137-24.0027,1.9514-27.557,12.76A20.7523,20.7523,0,0,0,14.7982,321.159l90.32,29.8875s23.5966,12.7549,30.5832,13.2989c3.8551-.544,213.0682-37.7565,213.0682-37.7565h31.4532V364.65a3.1887,3.1887,0,0,0,3.1887,3.1887h30.146V385.287a3.1887,3.1887,0,0,0,3.1887,3.1888h92.0653A3.1887,3.1887,0,0,0,512,385.287V248.7711A3.1887,3.1887,0,0,0,508.8113,245.5823ZM246.8826,269.396H182.868l-2.4431-126.9625h66.4577ZM114.4637,136.0305,101.222,131.66l53.3767-.0863,7.8439,4.4659Zm-22.1227-.4973,18.026,6.0079V268.1586L91.08,261.73Zm24.41,6.9h48.3155V269.396H116.7507Zm62.7239-6.3908-7.0491-4.4979,47.1648-.0763,12.5065,4.5841Zm30.7448-8.0089-43.7249-.0188-2.4079-1.433,42.1983.01Zm-64.3953-1.4559,2.5106,1.4294-58.255-.025-4.2965-1.4181Zm-76.7,1.2173,11.5616,3.8533-.1031.0448.2362,0,.0653.0218V258.3322l-11.76-3.9195ZM214.77,275.7735h38.49V236.89l65.3428,17.2226L138.7415,319.0514l-12.56-10.467Zm-178.5284,8.31c7.6529-5.74,22.0193-1.9116,22.0193-1.9116a19.2037,19.2037,0,0,0,3.743,24.7833L100.1973,339.34s-67.46-31.1935-67.7823-43.7778C32.415,291.7361,31.14,288.5474,36.2415,284.0831ZM7.5936,297.1264c6.3267-9.2168,19.331-8.7277,19.331-8.7277-.5569,2.9062-1.5248,16.0923,10.2289,21.9086l45.0993,26.0369L16.7759,315.096A14.3537,14.3537,0,0,1,7.5936,297.1264Zm340.8949,23.085c-.1868,0-207.4742,36.79-207.4742,36.79-2.0957.4228-12.9374-1.49-18.3514-6.9776l-.0056-.0049-.0013-.0007-.0049-.0043-.0013-.0013-.0037-.0037-.0025-.0016-.0037-.0034-.0025-.0019-.0038-.0037-.0018-.0016-.0063-.0052L66.8533,301.94c-2.8648-2.4491-7.653-13.3926-3.1888-18.4946s14.8949-6.73,20.2211-2.2555l51.9,44.0045a6.1576,6.1576,0,0,0,5.0465.98s193.6-69.7395,195.1983-69.4891c2.503-.0252,44.1925.0386,44.1925.0386v63.4875ZM411.97,361.4609H386.6V256.7239h25.37Zm93.6527,20.6374H419.9348V251.96h85.6877Z"/></svg>