<svg xmlns="http://www.w3.org/2000/svg" width="512" height="512" viewBox="0 0 512 512" fill="#1d2739"><path d="M505.1832,169.7259H473.28a6.8166,6.8166,0,0,0-6.8168,6.8168v7.6945H446.1659a6.8108,6.8108,0,0,0-6.7984,6.4521H360.043s-63.27-72.669-64.5978-73.8444L288.65,91.2258a27.0389,27.0389,0,0,0-32.957-19.2911c-.039.01-.078.021-.117.0319a27.4291,27.4291,0,0,0-19.03,33.2238l5.9778,22.6282L230.3928,116.415a25.8378,25.8378,0,0,0-36.49,1.0585L104.2532,214.879H71.3911l-.0093-1.475a6.8168,6.8168,0,0,0-6.8158-6.774h-.0438l-18.9853.1193v-7.8086a6.8166,6.8166,0,0,0-6.8168-6.8168H6.8168A6.8166,6.8166,0,0,0,0,198.9407V350.5172a6.8165,6.8165,0,0,0,6.8168,6.8168H38.72a6.8165,6.8165,0,0,0,6.8168-6.8168V342.94l19.8407-.1243a6.817,6.817,0,0,0,6.774-6.86l-.0671-10.6921H96.9114a26.538,26.538,0,0,0,1.4014,36.4206,25.8673,25.8673,0,0,0,21.4361,6.949,26.4264,26.4264,0,0,0,8.384,19.9063c5.094,4.6676,10.8671,7.46,20.3077,6.6409a26.3951,26.3951,0,0,0,8.3841,19.1836C161.9163,419.038,168,423,177.1362,421.0227a26.3946,26.3946,0,0,0,8.3845,19.1513,25.9041,25.9041,0,0,0,36.5561-1.5682c.0071-.0076.1046-.1151.1122-.1227l27.7888-30.257,4.745,6.2917C264,424,280,422,286.2481,417.67l.0009-.001a25.0145,25.0145,0,0,0,8.9635-11.3044c2.8813,1.178,15.7875,2.6359,23.5656-2.9254l.0019-.0019a24.6148,24.6148,0,0,0,9.5805-18.9786,24.9128,24.9128,0,0,0,14.3857-4.84l.0048-.0038a23.7986,23.7986,0,0,0,9.4938-15.41c5.7552.7962,12.6484-1.5,17.1476-4.81l.0028-.0028a23.9292,23.9292,0,0,0,9.6441-15.8837C380,330,366.59,317.5853,366.59,317.5853l73.8058-.3583a6.8053,6.8053,0,0,0,5.77,3.1986h20.2972v7.6936a6.8166,6.8166,0,0,0,6.8168,6.8168h31.9033A6.8166,6.8166,0,0,0,512,328.1192V176.5427A6.8166,6.8166,0,0,0,505.1832,169.7259ZM31.9033,343.7005h-18.27V205.7575h18.27Zm14.6854-14.4011L45.904,220.3811l11.887-.0747.35,55.6326v42.5085a6.8089,6.8089,0,0,0,.2791,1.9208l.0557,8.8569Zm25.41-17.6687-.2247-35.7772V228.5126h35.8143a6.8171,6.8171,0,0,0,6.0769-3.7284l90.0253-97.8168.1326-.1427a12.1913,12.1913,0,0,1,17.2213-.4855l52.5495,46.8659C276,176,277,177,276.17,181.8688L259.503,241.4567C256,246,250.6706,245.8732,247.1105,244.682c-6.3964-2.1392-10.0787-7.6536-9.0968-11.1581l12.3345-44.11C251.0824,186.7888,246,181,246,181s-8.3715-3.5981-10.81-.9923L111.993,311.6307Zm206.4006,94.89c-4.3945,3.0945-10.3735,2.9918-12.7928-.214L228.4214,357c-1.1212-1.4759-1.4214-7,3.6162-11.2028,4.9624-3.7974,10.1607-1.9448,11.0616-.8711s21.9416,27.8827,21.9416,27.8827l16.9658,22.4957C283.1392,396.8035,284,403,278.3994,406.5209Zm32.3142-14.0758c-4.406,3.2343-10.79,2.6105-13.9237-1.3371l-20.9514-26.624L253,335c-.8757-1.1605-1-8,3.0851-11.1964,3.9149-2.8036,12.1224-.8949,13.9008,1.3656l42.992,54.5752C314.3664,381.5142,316,389,310.7136,392.4451Zm23.9624-23.816c-4.4127,3.2429-10.5714,2.891-13.4519-.7684L280.18,315.819c-1.514-1.9192-2.18-7.819,2.7132-12.0873C286,301,294.7824,302.5268,296.342,304.503l41.0444,52.0417C338.9,358.4638,339,365,334.676,368.6291Zm26.6347-20.2155c-4.405,3.2391-10.4619,3.0157-13.23-.49L307.9481,297.108a6.6409,6.6409,0,0,1-1.2934-5.0926,10.2589,10.2589,0,0,1,4.2177-6.7265A11.6683,11.6683,0,0,1,317.7139,283a7.9869,7.9869,0,0,1,6.3907,2.7827l40.13,50.8187C365.6311,338.3691,367,344,361.3107,348.4136Zm-5.4456-44.41-21.0607-26.6706c-7.3208-9.2685-21.68-10.6246-32.0136-3.0232a24.1643,24.1643,0,0,0-9.2866,13.9324,24.75,24.75,0,0,0-18.6891,4.5066,23.7894,23.7894,0,0,0-9.51,15.5182,24.4009,24.4009,0,0,0-17.2855,4.5451,22.2085,22.2085,0,0,0-9.5266,17.1266,25.6981,25.6981,0,0,0-14.3041,4.7113,24.3042,24.3042,0,0,0-10.1972,15.9,19.1778,19.1778,0,0,0,3.5592,14.6787l24.08,31.93L212.1474,429.26c-.0077.0086-.107.1179-.1151.1265a12.2447,12.2447,0,0,1-17.26.7731,12.8025,12.8025,0,0,1-.8545-17.7818l22.4555-24.9638a6.8175,6.8175,0,0,0-.4241-9.5491l-.0961-.0894c-1.3385-1.2458-6.8529-3.7758-9.714.4328l-22.7366,25.2966-.0665.0733c-2.21,2.4079-12.3358,5.4215-17.2593.7722a12.8046,12.8046,0,0,1-.8526-17.7847l23.9082-26.6024a6.8162,6.8162,0,0,0-.2629-9.3893l-.09-.0894c-1.3238-1.3162-6.7793-3.4849-9.8743.273l-24.1958,26.8839-.0828.0913c-2.2073,2.4088-11.6264,5.2669-17.2455.7893a12.8088,12.8088,0,0,1-.8525-17.79l25.4245-28.2933a6.8166,6.8166,0,0,0-.3547-9.4787l-.1469-.1407c-1.3133-1.2582-6.4513-2.8193-9.6817.253l-26.6414,28.3313-.0746.078a12.2448,12.2448,0,0,1-17.2722.3946,12.82,12.82,0,0,1-.6153-17.64L232.4137,202.9245l-7.5286,26.9238c-3.0765,10.9784,4.9538,23.4332,17.9012,27.7636,7.143,2.3879,14.6264,1.9581,20.5321-1.18a18.4235,18.4235,0,0,0,9.318-11.3151l16.6815-59.6388.0285-.1055C292,177,290,168,282.212,162.6414c0,0-18.6-15.06-18.7423-15.2194-.4451-.4983-13.7387-45.7028-13.7387-45.7028A13.73,13.73,0,0,1,259.2,85.11a13.3964,13.3964,0,0,1,16.267,9.589l7.3683,27.7807c.3966,1.4964,69.5164,79.821,69.5164,79.821a6.8187,6.8187,0,0,0,4.8463,2.0223h82.1515v99.2757Zm109.0041,2.7886H452.9884V197.8708h11.8808Zm33.4972,14.51h-18.27V183.36h18.27Z"/></svg>