<svg xmlns="http://www.w3.org/2000/svg" viewBox="0 0 795.77 516.19" fill="#009920"><path d="M6.25,229a1222.64,1222.64,0,0,1,121.09-44.6q15.49-4.72,31.18-9c10.45-2.84,21-5.6,31.56-8,21.19-4.88,42.63-9.17,64.41-12.26a582.28,582.28,0,0,1,66.26-5.73c11.2-.22,22.48,0,33.82.57s22.75,1.76,34.19,3.52a269,269,0,0,1,68.14,19.25,220.15,220.15,0,0,1,32.4,17.52,195.57,195.57,0,0,1,29.32,23.49,200.89,200.89,0,0,1,24.51,28.86,216.79,216.79,0,0,1,18.76,32.62,239.7,239.7,0,0,1,13,34.67,290.32,290.32,0,0,1,7.83,35.46,345.93,345.93,0,0,1,3.68,35.47q.48,8.85.54,17.63c.05,5.88,0,11.63-.21,17.62a306.88,306.88,0,0,1-10.6,71.9,260.3,260.3,0,0,1-12.6,35.5A233.91,233.91,0,0,1,545,557.15a219.74,219.74,0,0,1-24.27,30.51,229.32,229.32,0,0,1-29.31,25.82,248.56,248.56,0,0,1-67.94,35.08,318.9,318.9,0,0,1-72,15.09q-18,1.74-35.78,1.8c-11.85,0-23.61-.42-35.26-1.24a546.93,546.93,0,0,1-68.59-9.55c-22.44-4.45-44.37-10.27-65.94-16.78-5.37-1.67-10.75-3.32-16.08-5.11l-8-2.68-1-.33-.49-.17c-2.2-1,4.7,2.18-6.93-2.94A43.7,43.7,0,0,1,91.7,599.37a44.59,44.59,0,0,1-1.33-7.11c-.19-1.74-.25-3.38-.26-4.57s0-2.41.08-3.26c0-1,.12-1.77.2-2.52s.16-1.39.25-2,.18-1.17.27-1.72c.37-2.1.74-3.7,1.1-5.13.72-2.77,1.4-4.94,2.07-6.9s1.32-3.73,2-5.41c1.3-3.35,2.59-6.38,3.9-9.31,2.6-5.83,5.27-11.22,8-16.5,5.5-10.53,11.27-20.54,17.32-30.37s12.47-19.37,19.16-28.78,13.78-18.59,21.26-27.62c3.75-4.5,7.59-9,11.58-13.36s8.16-8.7,12.46-12.95a274.84,274.84,0,0,1,28.14-24.49l1.95-1.44,1.91-1.39c1.24-.88,2.46-1.79,3.71-2.65q3.72-2.62,7.49-5.12,7.56-5,15.29-9.53a394.06,394.06,0,0,1,64-29.37c10.9-3.9,21.88-7.4,33-10.38s22.21-5.55,33.39-7.76A506.4,506.4,0,0,1,445.91,321a540.05,540.05,0,0,1,67.44,0A519.21,519.21,0,0,1,580,329.67a454.44,454.44,0,0,1,64.59,18q15.74,5.81,31,12.83a333.59,333.59,0,0,1,29.62,15.54A315.94,315.94,0,0,1,733,394.45a297.68,297.68,0,0,1,25.52,21.27,264.19,264.19,0,0,1,22.53,24.12q5.17,6.39,9.93,13.05t8.91,13.65l.12.2a2.39,2.39,0,0,1-3.94,2.71,248.83,248.83,0,0,0-20.87-23.84,267.3,267.3,0,0,0-23.71-21,300.36,300.36,0,0,0-53.79-33.4c-38.1-18.52-79.47-29.85-121.41-35.62a514,514,0,0,0-126.82-1.5c-42.09,4.71-83.73,14.35-123,29.93A355,355,0,0,0,270,412.25a276.76,276.76,0,0,0-25.79,18.05,227.09,227.09,0,0,0-23,21.36,396.73,396.73,0,0,0-39.26,49.57,495.14,495.14,0,0,0-32.2,54.61c-2.35,4.71-4.61,9.46-6.68,14.26-1,2.39-2,4.8-2.93,7.2a66.79,66.79,0,0,0-2.29,7.09c-.14.57-.26,1.11-.34,1.61a6.28,6.28,0,0,0-.12,1.16c0,.07,0,.14,0-.18a2.93,2.93,0,0,0-.36-.8,3.81,3.81,0,0,0-1.42-1.31c-1.12-.48-.18-.09-.24-.14l.47.16.95.3,7.57,2.46c5,1.62,10.13,3.15,15.21,4.69,20.34,6,40.91,11.26,61.69,15.34,10.39,2,20.82,3.88,31.3,5.3s21,2.68,31.52,3.44a385.3,385.3,0,0,0,63.19-.16A277.63,277.63,0,0,0,408.8,604a204.52,204.52,0,0,0,55.83-27.85,184.73,184.73,0,0,0,23.74-20.24,182.22,182.22,0,0,0,19.84-24.06,190.91,190.91,0,0,0,15.58-27.09A215.51,215.51,0,0,0,535,475.46a271.07,271.07,0,0,0,10.78-61.93,328.22,328.22,0,0,0-1.8-63.08,227.7,227.7,0,0,0-16.07-60.59,180.51,180.51,0,0,0-14.74-27.57,165.29,165.29,0,0,0-19.48-24.39A177.12,177.12,0,0,0,443,201.67c-18.88-9.11-39.15-15.32-59.83-19.4-10.34-2.06-20.82-3.52-31.33-4.62s-21.09-1.69-31.67-2a562.68,562.68,0,0,0-63.58,2.13c-42.33,3.73-84.33,11.31-125.8,21s-82.46,21.56-123,34.73A2.39,2.39,0,0,1,6.06,229Z" transform="translate(-4.61 -149.26)"/></svg>