<svg xmlns="http://www.w3.org/2000/svg" width="2500" height="400" viewBox="0 0 2500 400" fill="#f2f2f2">
	<path d="M987.6251,130.6792q0,37.4728-9.8452,62.5308-9.8452,25.0633-29.3,40.2812-19.46,15.2226-48.4048,21.6641-28.9527,6.438-67.1567,6.4385H666.3741a3.957,3.957,0,0,1-2.6958-.82,3.4271,3.4271,0,0,1-1.0547-2.4609q-.1208-1.6436-.1172-4.6963V9.1475q0-3.5157.1172-5.2774a3.1691,3.1691,0,0,1,1.0547-2.4648,4.8919,4.8919,0,0,1,2.93-.7036h166.31q38.2046,0,67.1567,6.56,28.9475,6.56,48.4048,21.8946,19.4538,15.339,29.3,40.1635Q987.625,94.1468,987.6251,130.6792Zm-19.9243,0q0-30.2058-6.7979-51.8657Q954.1016,57.1565,938.4,43.2207q-15.7068-13.9329-41.4893-20.4922-25.7886-6.5544-63.9926-6.5561H682.4307V246.123H832.9181q38.2046,0,63.9926-6.5556,25.782-6.5551,41.4893-20.4883,15.7017-13.9337,22.5029-35.8276Q967.6984,161.3587,967.7008,130.6792Z"/>
	<path d="M1156.3961,12.4219a69.52,69.52,0,0,1,5.86-9.376q2.1095-2.5767,6.3286-2.5786a7.8749,7.8749,0,0,1,5.7432,2.4614q2.4609,2.4609,6.4463,9.4932l129.3911,233.4668a18.9468,18.9468,0,0,1,2.5781,9.1416,8.88,8.88,0,0,1-2.3437,6.5635,7.6854,7.6854,0,0,1-5.626,2.3437,11.1,11.1,0,0,1-6.4458-2.2266q-3.1648-2.2251-6.4463-8.0869l-39.8486-72.1963h-166.896L1044.82,254.5615a18.614,18.614,0,0,1-5.9775,7.1494,12.1814,12.1814,0,0,1-6.68,2.2266,6.5388,6.5388,0,0,1-5.86-2.8125,13.306,13.306,0,0,1-1.875-7.501,9.2583,9.2583,0,0,1,.82-3.75q.8181-1.8735,1.9921-4.22Zm88.8393,155.1758-76.65-139.9395-76.65,139.94Z"/>
	<path d="M1627.3136,232.0586V18.3188q0-3.5214.2343-6.6953a17.4889,17.4889,0,0,1,1.29-5.6367,9.766,9.766,0,0,1,3.0468-3.9922,8.8566,8.8566,0,0,1,5.5088-1.5273q6.0924,0,7.97,5.2744a37.5482,37.5482,0,0,1,1.875,12.5405v228.31q0,15.0043-7.97,15.002-5.3949,0-13.3613-7.1534l-241.67-220.3579V245.4414a29.4234,29.4234,0,0,1-1.9927,11.4238q-1.9944,4.73-7.6181,4.7286-6.8013,0-8.5557-4.8018a33.8365,33.8365,0,0,1-1.7578-11.5918V15.9233q0-7.0209,2.5781-10.7714a8.099,8.099,0,0,1,7.0322-3.7466q5.8564,0,13.5957,7.039Z"/>
	<path d="M1795.6163,15.938H1705.84a20.0339,20.0339,0,0,1-5.5088-.7031,8.9761,8.9761,0,0,1-3.9853-2.2271,5.8556,5.8556,0,0,1-1.5235-4.3364q0-3.5157,1.6407-5.1568a9.3063,9.3063,0,0,1,4.1025-2.3442,20.0333,20.0333,0,0,1,5.5088-.7031h199.7119a17.6236,17.6236,0,0,1,5.2744.7031,7.7609,7.7609,0,0,1,3.6328,2.3442,7.0017,7.0017,0,0,1,1.4073,4.688q0,3.2858-1.4073,4.8052a8.16,8.16,0,0,1-3.6328,2.2271,17.6236,17.6236,0,0,1-5.2744.7031h-90.2451V246.123h90.2451a17.62,17.62,0,0,1,5.2744.7032,7.76,7.76,0,0,1,3.6328,2.3437,7.003,7.003,0,0,1,1.4073,4.6885q0,3.2856-1.4073,4.8057a8.1682,8.1682,0,0,1-3.6328,2.2265,17.62,17.62,0,0,1-5.2744.7032H1706.0743a20.0294,20.0294,0,0,1-5.5088-.7032,9.2683,9.2683,0,0,1-4.1025-2.3437q-1.6422-1.6377-1.6407-5.1573a5.8646,5.8646,0,0,1,1.5235-4.3369,9.0225,9.0225,0,0,1,3.9853-2.2265,20.03,20.03,0,0,1,5.5088-.7032h89.7764Z"/>
	<path d="M2204.6524,253.39a8.9846,8.9846,0,0,1-1.1728,5.1573,6.4091,6.4091,0,0,1-3.1641,2.3437,14.5052,14.5052,0,0,1-4.8057.7032H1970.2481a19.3176,19.3176,0,0,1-3.5166-.2344,2.5449,2.5449,0,0,1-1.7578-1.1719,5.3544,5.3544,0,0,1-.7031-2.4609c-.0811-1.0147-.1172-2.462-.1172-4.337V11.4844q0-3.5165.1172-5.6255a7.1937,7.1937,0,0,1,.82-3.2818A3.875,3.875,0,0,1,1967.5518.936a22.096,22.096,0,0,1,5.2745-.4687h220.5742a20.0538,20.0538,0,0,1,5.5088.7031,7.7567,7.7567,0,0,1,3.8672,2.3442q1.4063,1.6429,1.4072,5.1568a6.16,6.16,0,0,1-1.4072,4.3364,8.1546,8.1546,0,0,1-3.8672,2.2271,20.0538,20.0538,0,0,1-5.5088.7031H1984.0772V118.6069h201.5879a23.451,23.451,0,0,1,8.6729,1.4068q3.517,1.4063,3.5166,6.0942,0,5.1593-2.9307,6.7979a15.5052,15.5052,0,0,1-7.6182,1.6411H1984.0772V246.123h209.792a20.0494,20.0494,0,0,1,5.5088.7032,8.194,8.194,0,0,1,3.8672,2.2265A6.1648,6.1648,0,0,1,2204.6524,253.39Z"/>
	<path d="M2278.7237,261.5938a49.6748,49.6748,0,0,1-5.5088-.2344,5.327,5.327,0,0,1-2.93-1.0547,3.58,3.58,0,0,1-1.0546-2.5781c-.0811-1.1729-.1172-2.7735-.1172-4.8057V15.7036a25.2315,25.2315,0,0,1,2.1093-10.6655q2.1095-4.57,8.9073-4.5708,5.6264,0,7.2666,4.8052a32.1457,32.1457,0,0,1,1.6406,10.4311V246.123h201.3535q4.686,0,7.1494,2.461a7.3944,7.3944,0,0,1,2.461,5.2744,7.2435,7.2435,0,0,1-2.461,5.3916q-2.4609,2.3452-7.1494,2.3438Z"/>
	<path d="M700.1927,326.4692a20.1131,20.1131,0,0,1,1.696-2.7131,2.23,2.23,0,0,1,1.8315-.7457,2.2775,2.2775,0,0,1,1.6617.7123,14.0334,14.0334,0,0,1,1.8658,2.7465l37.4447,67.5444a5.4835,5.4835,0,0,1,.7464,2.6454,2.5685,2.5685,0,0,1-.6782,1.8987,2.2251,2.2251,0,0,1-1.6283.678,3.2147,3.2147,0,0,1-1.8653-.6437,7.0578,7.0578,0,0,1-1.8654-2.34L727.87,375.3645H679.5709l-11.6681,21.1591a5.3927,5.3927,0,0,1-1.73,2.0684,3.5268,3.5268,0,0,1-1.933.6437,1.8925,1.8925,0,0,1-1.6961-.8134,3.8537,3.8537,0,0,1-.5427-2.1705,2.6828,2.6828,0,0,1,.2375-1.0852q.237-.5417.5766-1.2207Zm25.7094,44.8939L703.72,330.8768l-22.1824,40.4863Z"/>
	<path d="M807.0333,395.5061A135.2154,135.2154,0,0,0,826.57,394.15q9.2928-1.357,18.7225-3.5942V362.1406h-36.258a4.8286,4.8286,0,0,1-1.56-.24,2.7115,2.7115,0,0,1-1.1533-.7232,2.3652,2.3652,0,0,1,0-2.7513,2.7113,2.7113,0,0,1,1.1189-.7232,4.53,4.53,0,0,1,1.5268-.2414h36.3257q2.8488,0,3.8667,1.0852a5.2925,5.2925,0,0,1,1.0173,3.662v28.3475a3.72,3.72,0,0,1-1.56,3.22,8.365,8.365,0,0,1-3.3239,1.4581q-10.0407,1.9678-19.469,3.3577a128.8764,128.8764,0,0,1-18.79,1.3894,100.55,100.55,0,0,1-22.148-2.1694,42.1876,42.1876,0,0,1-15.9077-6.8833,29.3147,29.3147,0,0,1-9.5985-12.14q-3.2228-7.4254-3.2223-18.0055,0-10.578,3.2223-18.0044a29.32,29.32,0,0,1,9.5985-12.14,42.216,42.216,0,0,1,15.9077-6.8833,100.5491,100.5491,0,0,1,22.148-2.17,90.3,90.3,0,0,1,17.0948,1.5925,87.6641,87.6641,0,0,1,16.8229,5.1152,3.4905,3.4905,0,0,1,1.56,1.1872,2.5087,2.5087,0,0,1,.475,1.3885,1.9514,1.9514,0,0,1-.6105,1.4237,2.1115,2.1115,0,0,1-1.56.6094,5.7764,5.7764,0,0,1-1.2892-.3395,83.2536,83.2536,0,0,0-16.1446-4.8757,85.4158,85.4158,0,0,0-16.3484-1.6259,91.7572,91.7572,0,0,0-20.6218,2.0007,35.9186,35.9186,0,0,0-14.0079,6.2386,24.485,24.485,0,0,0-7.9708,10.7836,50.3472,50.3472,0,0,0,0,31.3982,24.4746,24.4746,0,0,0,7.9708,10.7837,35.8911,35.8911,0,0,0,14.0079,6.2386A91.7047,91.7047,0,0,0,807.0333,395.5061Z"/>
	<path d="M938.4306,396.1841a2.6017,2.6017,0,0,1-.3391,1.4925,1.8687,1.8687,0,0,1-.9163.678,4.2033,4.2033,0,0,1-1.39.2031h-65.19a5.6278,5.6278,0,0,1-1.0178-.0677.7331.7331,0,0,1-.5084-.3395,1.5344,1.5344,0,0,1-.2037-.7114c-.0235-.2944-.0338-.7124-.0338-1.255V326.1974c0-.678.01-1.2207.0338-1.6269a2.0751,2.0751,0,0,1,.2375-.95,1.1213,1.1213,0,0,1,.7121-.4749,6.38,6.38,0,0,1,1.5262-.1354h63.8333a5.8144,5.8144,0,0,1,1.594.2031,1.9255,1.9255,0,0,1,1.5262,2.17,1.7837,1.7837,0,0,1-.4068,1.255,2.36,2.36,0,0,1-1.1194.6437,5.8131,5.8131,0,0,1-1.594.2041H874.5973v29.7026h58.3383a6.8,6.8,0,0,1,2.51.4072,1.6915,1.6915,0,0,1,1.0173,1.7633,2.055,2.055,0,0,1-.848,1.9664,4.4871,4.4871,0,0,1-2.2044.4749H874.5973v32.28H935.31a5.8135,5.8135,0,0,1,1.5944.2041,2.3688,2.3688,0,0,1,1.1189.6437A1.7859,1.7859,0,0,1,938.4306,396.1841Z"/>
	<path d="M1033.1963,390.0132V328.1745q0-1.0185.0682-1.9369a5.05,5.05,0,0,1,.373-1.6308,2.8358,2.8358,0,0,1,.8819-1.1549,2.5638,2.5638,0,0,1,1.5939-.4415,2.207,2.207,0,0,1,2.3065,1.5258,10.8682,10.8682,0,0,1,.5428,3.6285v66.053q0,4.3406-2.3065,4.34-1.5613,0-3.8666-2.0694l-69.9383-63.753v61.15a8.5122,8.5122,0,0,1-.5766,3.3048,2.1729,2.1729,0,0,1-2.2044,1.3678,2.3159,2.3159,0,0,1-2.4764-1.3894,9.7876,9.7876,0,0,1-.5089-3.3538V327.4818a5.47,5.47,0,0,1,.7465-3.1164,2.3454,2.3454,0,0,1,2.0351-1.0842q1.6946,0,3.9343,2.037Z"/>
	<path d="M1058.16,360.7835q0-10.578,3.2223-18.0044a29.3192,29.3192,0,0,1,9.5986-12.14,42.2155,42.2155,0,0,1,15.9076-6.8833,100.55,100.55,0,0,1,22.1481-2.17,90.2907,90.2907,0,0,1,17.0947,1.5935,87.6227,87.6227,0,0,1,16.8229,5.12,3.4965,3.4965,0,0,1,1.56,1.1863,2.5142,2.5142,0,0,1,.4751,1.39,1.9542,1.9542,0,0,1-.6105,1.4248,2.1161,2.1161,0,0,1-1.56.61,5.8355,5.8355,0,0,1-1.2892-.3395,83.1484,83.1484,0,0,0-16.1447-4.8826,85.2669,85.2669,0,0,0-16.3483-1.6278,91.7572,91.7572,0,0,0-20.6218,2.0007,35.9191,35.9191,0,0,0-14.008,6.2386,24.484,24.484,0,0,0-7.9707,10.7836,50.3472,50.3472,0,0,0,0,31.3982,24.4737,24.4737,0,0,0,7.9707,10.7837,35.8916,35.8916,0,0,0,14.008,6.2386,91.7047,91.7047,0,0,0,20.6218,2.0007,85.2592,85.2592,0,0,0,16.3483-1.6279,83.1482,83.1482,0,0,0,16.1447-4.8825,2.6954,2.6954,0,0,1,1.221-.2718,2.3224,2.3224,0,0,1,1.6621.61,1.9055,1.9055,0,0,1,.6444,1.4247,2.3569,2.3569,0,0,1-.4746,1.3561,3.5933,3.5933,0,0,1-1.6283,1.1529,86.2776,86.2776,0,0,1-33.9176,6.7135,100.55,100.55,0,0,1-22.1481-2.1694,42.1871,42.1871,0,0,1-15.9076-6.8833,29.3141,29.3141,0,0,1-9.5986-12.14Q1058.1593,371.3636,1058.16,360.7835Z"/>
	<path d="M1211.0612,358.2745a106.6976,106.6976,0,0,1-1.3908,18.4127,34.7362,34.7362,0,0,1-4.7485,12.9865,20.6624,20.6624,0,0,1-8.9881,7.6977q-5.6313,2.5419-14.11,2.5423a83.136,83.136,0,0,1-10.8873-.678,34.3727,34.3727,0,0,1-9.1918-2.4413,20.5611,20.5611,0,0,1-6.9529-4.8492,18.2181,18.2181,0,0,1-4.1719-7.9,3.7713,3.7713,0,0,1-.2713-1.6279,2.6433,2.6433,0,0,1,.6782-2.0007,2.2812,2.2812,0,0,1,1.6278-.6446,2.8145,2.8145,0,0,1,1.73.6564,3.4694,3.4694,0,0,1,1.1871,1.8987,14.4476,14.4476,0,0,0,3.7989,7.3886,17.57,17.57,0,0,0,6.3763,3.9357,23.1527,23.1527,0,0,0,7.8692,1.3119h8.2078q7.19,0,11.77-2.3981a17.13,17.13,0,0,0,7.1566-7.06,33.6192,33.6192,0,0,0,3.5614-11.52,112.8955,112.8955,0,0,0,.9835-15.8438V327.74a9.1791,9.1791,0,0,1,.5427-3.345,2.3822,2.3822,0,0,1,2.51-1.3845,2.1934,2.1934,0,0,1,1.4242.44,2.7246,2.7246,0,0,1,.8141,1.12,6.0644,6.0644,0,0,1,.373,1.5258,13.8567,13.8567,0,0,1,.1021,1.6612Z"/>
	<path d="M1262.0731,326.4692a20.111,20.111,0,0,1,1.6961-2.7131,2.23,2.23,0,0,1,1.8314-.7457,2.2773,2.2773,0,0,1,1.6617.7123,14.0289,14.0289,0,0,1,1.8658,2.7465l37.4447,67.5444a5.4826,5.4826,0,0,1,.7465,2.6454,2.5689,2.5689,0,0,1-.6782,1.8987,2.2253,2.2253,0,0,1-1.6284.678,3.2152,3.2152,0,0,1-1.8653-.6437,7.0565,7.0565,0,0,1-1.8653-2.34L1289.75,375.3645h-48.2986l-11.668,21.1591a5.3935,5.3935,0,0,1-1.73,2.0684,3.5271,3.5271,0,0,1-1.9331.6437,1.8923,1.8923,0,0,1-1.696-.8134,3.8529,3.8529,0,0,1-.5428-2.1705,2.6828,2.6828,0,0,1,.2375-1.0852q.2372-.5417.5767-1.2207Zm25.7094,44.8939-22.1819-40.4863-22.1823,40.4863Z"/>
	<path d="M1432.4752,325.4889q0,1.3777-.95,1.6877a8.0187,8.0187,0,0,1-2.442.31h-37.92V393.54q0,1.017-.0678,1.8987a5.0138,5.0138,0,0,1-.3729,1.5935,2.6839,2.6839,0,0,1-.848,1.1186,2.564,2.564,0,0,1-1.56.4072,2.2636,2.2636,0,0,1-2.34-1.5258,9.8273,9.8273,0,0,1-.5767-3.4922v-66.053H1347.41a9.0618,9.0618,0,0,1-2.5436-.31,1.53,1.53,0,0,1-1.0516-1.6877,2.217,2.217,0,0,1,.475-1.5483,2.5281,2.5281,0,0,1,1.1871-.7232,5.8282,5.8282,0,0,1,1.6278-.207H1429.49a5.0078,5.0078,0,0,1,1.5263.207,2.1358,2.1358,0,0,1,1.0516.7232A2.4728,2.4728,0,0,1,1432.4752,325.4889Z"/>
	<path d="M1511.0962,346.4459a19.9982,19.9982,0,0,1-1.221,7.2905,17.7206,17.7206,0,0,1-3.29,5.45,18.6677,18.6677,0,0,1-4.8839,3.8837,31.4583,31.4583,0,0,1-6.0033,2.5551,41.8131,41.8131,0,0,1-6.6139,1.464,48.4459,48.4459,0,0,1-6.6815.4769l24.9639,26.3075a3.5431,3.5431,0,0,1,.848,1.258,5.4665,5.4665,0,0,1,.3043,1.1882,2.16,2.16,0,0,1-.6439,1.5935,2.2455,2.2455,0,0,1-1.6626.6447,4.27,4.27,0,0,1-1.594-.3395,4.4241,4.4241,0,0,1-1.6626-1.2884l-27.2013-29.0255h-25.37v25.499a17.5536,17.5536,0,0,1-.1016,1.933,6.66,6.66,0,0,1-.373,1.6279,2.8219,2.8219,0,0,1-.78,1.1529,1.9457,1.9457,0,0,1-1.3231.4406,2.48,2.48,0,0,1-2.5774-1.5238,9.7306,9.7306,0,0,1-.6105-3.6257V325.5851c0-.677.01-1.1843.0338-1.5238a1.0949,1.0949,0,0,1,.2376-.7114.9884.9884,0,0,1,.712-.2041h33.24a74.1671,74.1671,0,0,1,10.65.7153,44.6056,44.6056,0,0,1,8.92,2.1812,19.89,19.89,0,0,1,6.8175,4.0878,17.4,17.4,0,0,1,4.3422,6.5742A27.1886,27.1886,0,0,1,1511.0962,346.4459Zm-5.7653-.1678q0-6.7911-2.4754-10.6678a14.6914,14.6914,0,0,0-7.3607-5.7618,33.6952,33.6952,0,0,0-12.0749-1.8879h-33.0358v35.4683h25.4385a110.5819,110.5819,0,0,0,11.26-.5485,30.315,30.315,0,0,0,9.3954-2.3667,15.6455,15.6455,0,0,0,6.444-5.1789Q1505.3309,351.9732,1505.3309,346.2781Z"/>
	<path d="M1561.0918,326.4692a20.06,20.06,0,0,1,1.6961-2.7131,2.2285,2.2285,0,0,1,1.8314-.7457,2.2773,2.2773,0,0,1,1.6617.7123,14.0282,14.0282,0,0,1,1.8659,2.7465l37.4451,67.5444a5.4872,5.4872,0,0,1,.746,2.6454,2.5685,2.5685,0,0,1-.6782,1.8987,2.2245,2.2245,0,0,1-1.6283.678,3.2155,3.2155,0,0,1-1.8659-.6437,7.0624,7.0624,0,0,1-1.8648-2.34l-11.5326-20.8873H1540.47l-11.6671,21.1591a5.3943,5.3943,0,0,1-1.73,2.0684,3.5274,3.5274,0,0,1-1.9336.6437,1.89,1.89,0,0,1-1.695-.8134,3.8448,3.8448,0,0,1-.5428-2.1705,2.6828,2.6828,0,0,1,.2375-1.0852q.2371-.5417.5762-1.2207Zm25.7094,44.8939-22.1819-40.4863-22.1818,40.4863Z"/>
	<path d="M1697.372,390.0132V328.1745q0-1.0185.0678-1.9369a5.0893,5.0893,0,0,1,.3729-1.6308,2.8429,2.8429,0,0,1,.8824-1.1549,2.5641,2.5641,0,0,1,1.594-.4415,2.2064,2.2064,0,0,1,2.3065,1.5258,10.8682,10.8682,0,0,1,.5428,3.6285v66.053q0,4.3406-2.3066,4.34-1.5606,0-3.8671-2.0694l-69.9377-63.753v61.15a8.5137,8.5137,0,0,1-.5771,3.3048,2.1726,2.1726,0,0,1-2.2045,1.3678,2.314,2.314,0,0,1-2.4753-1.3894,9.7748,9.7748,0,0,1-.5094-3.3538V327.4818a5.474,5.474,0,0,1,.7459-3.1164,2.3471,2.3471,0,0,1,2.0357-1.0842q1.6945,0,3.9348,2.037Z"/>
	<path d="M1810.7931,377.0767a18.6689,18.6689,0,0,1-1.5605,7.8312,18.0281,18.0281,0,0,1-4.3412,5.9335,25.8459,25.8459,0,0,1-6.6143,4.2781,44.8981,44.8981,0,0,1-8.3094,2.8289,66.2275,66.2275,0,0,1-9.5314,1.5169q-5.0541.4489-10.2085.4484a139.88,139.88,0,0,1-14.45-.7457q-7.19-.7491-13.4308-1.8663-6.2424-1.1186-11.0232-2.4089a45.8318,45.8318,0,0,1-7.2248-2.4432,3.31,3.31,0,0,1-1.3908-1.1873,2.7362,2.7362,0,0,1-.4407-1.4591,2.2186,2.2186,0,0,1,.4407-1.39,1.5606,1.5606,0,0,1,1.323-.5779,2.7738,2.7738,0,0,1,.9491.2041,62.9914,62.9914,0,0,0,7.5978,2.3765q4.9512,1.2908,11.2274,2.41,6.2733,1.12,13.3631,1.8673a134.378,134.378,0,0,0,14.0757.7457,89.6139,89.6139,0,0,0,12.8891-.888,39.5629,39.5629,0,0,0,10.7513-3.0085,19.49,19.49,0,0,0,7.3946-5.6057,13.489,13.489,0,0,0,2.7472-8.6141,10.5848,10.5848,0,0,0-2.34-7.0756,16.4114,16.4114,0,0,0-6.3434-4.443,41.0747,41.0747,0,0,0-9.3606-2.53q-5.36-.8552-11.3628-1.2992t-12.38-.4445q-6.3779,0-12.3807-.5445-6.0022-.5462-11.3618-1.569a36.5343,36.5343,0,0,1-9.3615-2.9986,17.2834,17.2834,0,0,1-6.3425-5.1122,12.8545,12.8545,0,0,1-2.34-7.9077,17.3705,17.3705,0,0,1,1.6273-7.7016,17.6069,17.6069,0,0,1,4.4776-5.76,25.0383,25.0383,0,0,1,6.75-4.022,48.0407,48.0407,0,0,1,8.4792-2.5561,78.3515,78.3515,0,0,1,9.6324-1.3639q5.0528-.4077,10.1419-.4082,6.3085,0,12.414.576,6.1039.5754,11.4639,1.5592,5.3575.9816,9.6324,2.1675a44.0314,44.0314,0,0,1,6.8509,2.405,1.8235,1.8235,0,0,1,.8146.78,2.2187,2.2187,0,0,1,.2709,1.05,2.7844,2.7844,0,0,1-.6438,1.7623,2.1663,2.1663,0,0,1-1.7982.8134,2.2809,2.2809,0,0,1-1.1532-.2718,65.7846,65.7846,0,0,0-7.9708-2.6738q-4.3755-1.1864-9.2594-1.9987t-10.0732-1.2531q-5.19-.44-10.2772-.44a105.3067,105.3067,0,0,0-13.5.833,46.3891,46.3891,0,0,0-11.3618,2.8093,20.4,20.4,0,0,0-7.8353,5.2721,12.0525,12.0525,0,0,0-2.9171,8.2913,8.5058,8.5058,0,0,0,2.3409,6.2092,16.6765,16.6765,0,0,0,6.3425,3.8493,45.3275,45.3275,0,0,0,9.3615,2.1862,84.3846,84.3846,0,0,0,11.3619.7281h12.38a103.1486,103.1486,0,0,1,12.3806.7251,101.5809,101.5809,0,0,1,11.3619,2,35.5892,35.5892,0,0,1,9.3615,3.554,18.2253,18.2253,0,0,1,6.3425,5.8295A15.524,15.524,0,0,1,1810.7931,377.0767Z"/>
	<path d="M1896.7411,349.8056a31.5932,31.5932,0,0,1-1.5262,10.5207,19.4462,19.4462,0,0,1-4.24,7.0942,18.6509,18.6509,0,0,1-6.5466,4.3518,39.7276,39.7276,0,0,1-8.4448,2.296,61.2674,61.2674,0,0,1-9.87.7536h-31.035v18.552a11.8166,11.8166,0,0,1-.5084,3.5815,2.0707,2.0707,0,0,1-2.1377,1.6023,2.4168,2.4168,0,0,1-2.5431-1.5219,10.1957,10.1957,0,0,1-.5771-3.6187v-67.7a5.0892,5.0892,0,0,1,.17-1.5219,1.1547,1.1547,0,0,1,.5761-.7094,2.358,2.358,0,0,1,1.0522-.2041h35.8169A44.8645,44.8645,0,0,1,1877,324.3448a36.4176,36.4176,0,0,1,8.276,2.9123,19.3293,19.3293,0,0,1,6.207,4.9,21.346,21.346,0,0,1,3.9005,7.3671A34.5114,34.5114,0,0,1,1896.7411,349.8056Zm-5.7663.0952a26.4632,26.4632,0,0,0-2.1367-11.4784,15.3845,15.3845,0,0,0-6.5123-6.86,30.579,30.579,0,0,0-11.0909-3.2949,129.3622,129.3622,0,0,0-15.9416-.85h-20.2149v43.3348h20.2149q9.2251,0,15.9749-.577a31.5644,31.5644,0,0,0,11.1253-2.717,13.8558,13.8558,0,0,0,6.4779-6.2828Q1890.9738,357.0344,1890.9748,349.9008Z"/>
	<path d="M2006.9733,360.7835a46.2087,46.2087,0,0,1-2.9514,17.26,29.3037,29.3037,0,0,1-9.09,12.2407,40.9513,40.9513,0,0,1-15.5342,7.2905,104.36,104.36,0,0,1-44.568,0,40.6152,40.6152,0,0,1-15.5008-7.2905,29.4208,29.4208,0,0,1-9.0563-12.2407,51.9568,51.9568,0,0,1,0-34.5185,29.4281,29.4281,0,0,1,9.0563-12.2408,40.6284,40.6284,0,0,1,15.5008-7.29,104.3561,104.3561,0,0,1,44.568,0,40.9646,40.9646,0,0,1,15.5342,7.29,29.3109,29.3109,0,0,1,9.09,12.2408A46.2133,46.2133,0,0,1,2006.9733,360.7835Zm-93.8844,0a42.1938,42.1938,0,0,0,2.7129,16.0735,25.4709,25.4709,0,0,0,8.1749,10.7483,34.9727,34.9727,0,0,0,13.7361,6.0355,101.8255,101.8255,0,0,0,38.8016,0,35.2957,35.2957,0,0,0,13.7705-6.0355,25.363,25.363,0,0,0,8.2082-10.7483,48.851,48.851,0,0,0,0-32.1116,25.3289,25.3289,0,0,0-8.2082-10.7826,35.3249,35.3249,0,0,0-13.7705-6.0355,101.8255,101.8255,0,0,0-38.8016,0,35.0014,35.0014,0,0,0-13.7361,6.0355,25.4365,25.4365,0,0,0-8.1749,10.7826A42.2543,42.2543,0,0,0,1913.0889,360.7835Z"/>
	<path d="M2092.7171,346.4459a20.0193,20.0193,0,0,1-1.221,7.2905,17.7614,17.7614,0,0,1-3.29,5.45,18.6857,18.6857,0,0,1-4.8839,3.8837,31.5019,31.5019,0,0,1-6.0039,2.5551,41.8032,41.8032,0,0,1-6.6133,1.464,48.46,48.46,0,0,1-6.6821.4769l24.9635,26.3075a3.5312,3.5312,0,0,1,.848,1.258,5.4846,5.4846,0,0,1,.3053,1.1882,2.1607,2.1607,0,0,1-.6449,1.5935,2.2448,2.2448,0,0,1-1.6617.6447,4.2655,4.2655,0,0,1-1.5939-.3395,4.41,4.41,0,0,1-1.6627-1.2884l-27.2013-29.0255h-25.3707v25.499a17.55,17.55,0,0,1-.1021,1.933,6.6374,6.6374,0,0,1-.373,1.6279,2.8086,2.8086,0,0,1-.78,1.1529,1.9419,1.9419,0,0,1-1.3221.4406,2.4817,2.4817,0,0,1-2.5784-1.5238,9.7529,9.7529,0,0,1-.61-3.6257V325.5851q0-1.0155.0343-1.5238a1.101,1.101,0,0,1,.2375-.7114.9894.9894,0,0,1,.7126-.2041h33.2385a74.1606,74.1606,0,0,1,10.65.7153,44.6169,44.6169,0,0,1,8.9209,2.1812,19.9,19.9,0,0,1,6.8175,4.0878,17.3976,17.3976,0,0,1,4.3411,6.5742A27.1627,27.1627,0,0,1,2092.7171,346.4459Zm-5.7663-.1678q0-6.7911-2.4754-10.6678a14.6879,14.6879,0,0,0-7.36-5.7618,33.6965,33.6965,0,0,0-12.0744-1.8879h-33.0363v35.4683h25.4385a110.61,110.61,0,0,0,11.2607-.5485,30.3139,30.3139,0,0,0,9.3949-2.3667,15.65,15.65,0,0,0,6.4445-5.1789Q2086.95,351.9732,2086.9508,346.2781Z"/>
	<path d="M2186.1941,325.4889q0,1.3777-.95,1.6877a8.0143,8.0143,0,0,1-2.442.31h-37.9192V393.54q0,1.017-.0677,1.8987a5.0006,5.0006,0,0,1-.374,1.5935,2.6708,2.6708,0,0,1-.848,1.1186,2.5614,2.5614,0,0,1-1.56.4072,2.2644,2.2644,0,0,1-2.3409-1.5258,9.83,9.83,0,0,1-.5761-3.4922v-66.053h-37.988a9.0672,9.0672,0,0,1-2.544-.31,1.53,1.53,0,0,1-1.0512-1.6877,2.217,2.217,0,0,1,.475-1.5483,2.5337,2.5337,0,0,1,1.1867-.7232,5.8334,5.8334,0,0,1,1.6283-.207h82.3861a5.0075,5.0075,0,0,1,1.5262.207,2.1351,2.1351,0,0,1,1.0512.7232A2.47,2.47,0,0,1,2186.1941,325.4889Z"/>
	<path d="M2291.4079,360.7835a46.2067,46.2067,0,0,1-2.9514,17.26,29.3037,29.3037,0,0,1-9.09,12.2407,40.9513,40.9513,0,0,1-15.5342,7.2905,104.36,104.36,0,0,1-44.568,0,40.6152,40.6152,0,0,1-15.5008-7.2905,29.4208,29.4208,0,0,1-9.0563-12.2407,51.9568,51.9568,0,0,1,0-34.5185,29.4281,29.4281,0,0,1,9.0563-12.2408,40.6284,40.6284,0,0,1,15.5008-7.29,104.3561,104.3561,0,0,1,44.568,0,40.9646,40.9646,0,0,1,15.5342,7.29,29.3109,29.3109,0,0,1,9.09,12.2408A46.2113,46.2113,0,0,1,2291.4079,360.7835Zm-93.8844,0a42.1938,42.1938,0,0,0,2.7129,16.0735,25.4717,25.4717,0,0,0,8.1749,10.7483,34.9727,34.9727,0,0,0,13.7361,6.0355,101.8255,101.8255,0,0,0,38.8016,0,35.2957,35.2957,0,0,0,13.7705-6.0355,25.363,25.363,0,0,0,8.2082-10.7483,48.851,48.851,0,0,0,0-32.1116,25.3289,25.3289,0,0,0-8.2082-10.7826,35.3249,35.3249,0,0,0-13.7705-6.0355,101.8255,101.8255,0,0,0-38.8016,0,35.0014,35.0014,0,0,0-13.7361,6.0355,25.4373,25.4373,0,0,0-8.1749,10.7826A42.2543,42.2543,0,0,0,2197.5235,360.7835Z"/>
	<path d="M2385.5622,390.0809,2408.22,326.74a20.3125,20.3125,0,0,1,1.221-2.5433,2.05,2.05,0,0,1,1.8314-1.1863,2.1014,2.1014,0,0,1,1.8649.7457,2.6353,2.6353,0,0,1,.5094,1.4924,5.5719,5.5719,0,0,1-.2375,1.5592q-.2385.8139-.5772,1.7633l-23.9456,66.3925q-.7464,1.56-1.3564,2.5767a2.1218,2.1218,0,0,1-1.9679,1.0175,2.198,2.198,0,0,1-2-1.0175,12.4527,12.4527,0,0,1-1.1877-2.5767L2359.7173,332.03l-22.5215,62.9337a9.78,9.78,0,0,1-1.2887,2.5767,2.3926,2.3926,0,0,1-2.0346,1.0175,2.1986,2.1986,0,0,1-2.0013-1.0175,12.4528,12.4528,0,0,1-1.1876-2.5767l-23.8779-66.3925q-.34-.948-.6439-1.7633a4.4179,4.4179,0,0,1-.3053-1.5592,2.5271,2.5271,0,0,1,.5418-1.4924,2.1993,2.1993,0,0,1,1.9-.7457,2.0786,2.0786,0,0,1,1.9326,1.1863,24.1748,24.1748,0,0,1,1.1876,2.5433l22.4538,63.3409,22.6569-63.3409a23.9733,23.9733,0,0,1,1.1866-2.5433,2.0285,2.0285,0,0,1,1.8659-1.1863,2.4057,2.4057,0,0,1,2.2044,1.0175,14.1265,14.1265,0,0,1,1.2553,2.7121Z"/>
	<path d="M2454.7549,326.4692a20.0719,20.0719,0,0,1,1.696-2.7131,2.2288,2.2288,0,0,1,1.8315-.7457,2.2773,2.2773,0,0,1,1.6617.7123,14.0289,14.0289,0,0,1,1.8658,2.7465l37.4452,67.5444a5.4872,5.4872,0,0,1,.746,2.6454,2.5685,2.5685,0,0,1-.6783,1.8987,2.2241,2.2241,0,0,1-1.6283.678,3.2154,3.2154,0,0,1-1.8658-.6437,7.0624,7.0624,0,0,1-1.8648-2.34l-11.5327-20.8873h-48.2986l-11.667,21.1591a5.3952,5.3952,0,0,1-1.73,2.0684,3.5274,3.5274,0,0,1-1.9336.6437,1.89,1.89,0,0,1-1.695-.8134,3.8448,3.8448,0,0,1-.5428-2.1705,2.6828,2.6828,0,0,1,.2375-1.0852q.237-.5417.5762-1.2207Zm25.7094,44.8939-22.1819-40.4863-22.1819,40.4863Z"/>
	<path fill="#009920" d="M1.0691,61.0517c15.4916-6.5329,31.195-12.5638,47.0281-18.3364q11.8637-4.368,23.8914-8.32Q84.0015,30.3976,96.1513,26.73q12.1543-3.6416,24.4525-6.9113c8.1979-2.1794,16.4321-4.2925,24.74-6.1467,16.6058-3.7411,33.4007-7.0125,50.4407-9.36a456.1091,456.1091,0,0,1,51.8-4.2647A312.9827,312.9827,0,0,1,300.61,3.4187,209.7912,209.7912,0,0,1,353.546,18.5278,160.7385,160.7385,0,0,1,401.2739,50.393a155.2368,155.2368,0,0,1,18.9175,22.3528A168.4358,168.4358,0,0,1,434.656,98.0049a201.9286,201.9286,0,0,1,16.0305,54.39,268.6209,268.6209,0,0,1,2.8078,27.562q.3549,6.8691.3918,13.703c.0313,4.57-.0458,9.0516-.1938,13.6982a238.0863,238.0863,0,0,1-8.33,55.7455,200.823,200.823,0,0,1-9.7994,27.4447,179.7094,179.7094,0,0,1-14.3844,25.9961,174.9683,174.9683,0,0,1-18.7568,23.5113,177.43,177.43,0,0,1-22.61,19.9251,193.137,193.137,0,0,1-52.5494,26.99,242.9027,242.9027,0,0,1-55.8167,11.6884,336.8126,336.8126,0,0,1-55.2154.4066,409.31,409.31,0,0,1-53.4191-7.449c-17.4789-3.518-34.6056-7.9681-51.45-13.0248-4.1979-1.2945-8.4046-2.5649-12.5578-3.9673l-6.2288-2.098-.7785-.2624-.3892-.1312c-1.8111-.7822,3.66,1.6185-4.7572-1.99a31.3266,31.3266,0,0,1-11.9995-11,31.6486,31.6486,0,0,1-3.8007-8.6131,32.733,32.733,0,0,1-.9727-5.1449c-.1394-1.2936-.1855-2.4409-.1942-3.33-.0081-.882.0168-1.7562.0555-2.3722.04-.7334.0915-1.3032.148-1.8409.06-.597.1194-1.0252.1849-1.495l.1994-1.2627c.2714-1.5523.55-2.7412.8194-3.8082.5361-2.0751,1.0571-3.7122,1.564-5.2039.5083-1.49,1.01-2.8386,1.51-4.1263,1-2.5656,1.9985-4.8984,3.0092-7.1556,2.02-4.5,4.087-8.6878,6.2112-12.7955,4.2475-8.19,8.7126-15.9991,13.3969-23.6724q7.1064-11.45,14.9336-22.4059c5.2208-7.32,10.688-14.5053,16.4848-21.5391,2.9006-3.515,5.8756-6.9987,8.9646-10.4255q4.6654-5.1129,9.6486-10.0784a212.1181,212.1181,0,0,1,21.75-19.0036c.974-.7324,2.046-1.5268,2.98-2.1875l2.8792-2.0511c1.91-1.3879,3.8585-2.69,5.811-3.983l2.9269-1.9414,2.9631-1.8567,2.9641-1.8515,3-1.7646a303.048,303.048,0,0,1,49.6929-22.9617c8.4881-3.0471,17.0308-5.8135,25.658-8.1667s17.3056-4.3625,26.01-6.113a398.4534,398.4534,0,0,1,52.52-6.9948,424.1206,424.1206,0,0,1,52.6466-.2051q13.12.7934,26.15,2.4471c8.6793,1.1129,17.3293,2.4013,25.9066,4.113a354.442,354.442,0,0,1,50.506,13.8366q12.32,4.4314,24.23,9.8775,11.9011,5.4212,23.2139,11.9854a237.4912,237.4912,0,0,1,41.9054,30.6817,214.5773,214.5773,0,0,1,17.7015,18.7643l2.0545,2.464c.68.8241,1.3183,1.6866,1.9777,2.5265,1.2935,1.7035,2.6513,3.3417,3.8593,5.1059,1.2129,1.7587,2.471,3.4715,3.6337,5.2545l3.451,5.3535.0651.1011a1.7169,1.7169,0,0,1-2.8046,1.9761,201.3233,201.3233,0,0,0-34.97-35.1972,238.9206,238.9206,0,0,0-42.2077-26.2162,289.54,289.54,0,0,0-46.5-17.7229c-7.9844-2.2926-16.049-4.3148-24.185-6.01q-12.2074-2.5255-24.5654-4.2379A405.4627,405.4627,0,0,0,348.5249,158.6a399.8631,399.8631,0,0,0-49.1049,8.5052,347.5369,347.5369,0,0,0-47.4884,14.8863,275.8989,275.8989,0,0,0-44.4135,22.1334,225.973,225.973,0,0,0-20.2792,14.1723A179.3676,179.3676,0,0,0,169.18,235.1009a311.108,311.108,0,0,0-30.8,38.9419,386.4191,386.4191,0,0,0-25.2412,42.8629c-1.8457,3.7007-3.6163,7.4349-5.2425,11.2015a81.4847,81.4847,0,0,0-4.1054,11.27,11.0181,11.0181,0,0,0-.37,2.2664c-.0016.0723.02.1487-.024-.0523a1.8538,1.8538,0,0,0-.2416-.5287,2.5741,2.5741,0,0,0-.98-.8916c-.7785-.3193-.0449-.0327-.1042-.0672l.3714.12.7428.24,5.9423,1.9205c3.9641,1.2708,7.95,2.47,11.9341,3.6731,15.9664,4.7033,32.1066,8.8052,48.4169,12,8.154,1.5933,16.3394,3.0261,24.5646,4.1371,8.222,1.1216,16.4637,2.1107,24.7325,2.7088a302.619,302.619,0,0,0,49.6054-.0957,218.1507,218.1507,0,0,0,48.41-9.6232,160.6334,160.6334,0,0,0,43.899-21.8624,144.7966,144.7966,0,0,0,18.6828-15.894,143.0035,143.0035,0,0,0,15.6211-18.9137,157.9569,157.9569,0,0,0,21.1015-44.2818,212.1849,212.1849,0,0,0,8.4962-48.6459,258.7241,258.7241,0,0,0-1.4622-49.5346,179.4013,179.4013,0,0,0-12.6786-47.5936A134.8791,134.8791,0,0,0,383.497,67.6375a139.2878,139.2878,0,0,0-39.9006-28.4242,194.3067,194.3067,0,0,0-47.0037-15.1839,296.1436,296.1436,0,0,0-49.45-5.1287,441.2471,441.2471,0,0,0-49.8751,1.6914c-33.2071,2.9306-66.1416,8.8862-98.6617,16.4688C66.0764,44.6684,33.9417,53.9805,2.146,64.3157a1.7161,1.7161,0,0,1-1.2049-3.21Z"/>
</svg>