<svg xmlns="http://www.w3.org/2000/svg" width="512" height="512" viewBox="0 0 512 512" fill="#1d2739">
	<path d="M423.0872,181.1678H220.6628v99.0487H423.0872Zm-2.56,96.4885H223.223V183.728H420.5269Z"/>
	<path d="M209.4425,181.1678H.125v99.0487H209.4425Zm-2.56,96.4885H2.6852V183.728h204.197Z"/>
	<path d="M512.125,267.176v-9.5146a6.1253,6.1253,0,0,0-.9245-3.24l-33.9223-54.2241a6.1189,6.1189,0,0,0-5.1586-2.8621h-.0444l-39.0459.25a6.112,6.112,0,0,0-6.0443,6.0871v80.8708H220.6691v3.45H209.4425v-3.45H.125V314.677H26.51l-.1994-1.4538a20.2574,20.2574,0,0,1-.1865-2.5659,19.7328,19.7328,0,0,1,39.4656-.0062,19.2533,19.2533,0,0,1-.1856,2.5683L65.2,314.677h85.3765l-.2043-1.4576a19.2377,19.2377,0,0,1-.1857-2.5627,19.7326,19.7326,0,0,1,19.72-19.7455h.0131a19.7323,19.7323,0,0,1,19.7324,19.7355,20.2817,20.2817,0,0,1-.1866,2.5765l-.1994,1.4538h20.1765v-17.23h11.2266v17.23h47.0688l-.2038-1.4576a19.1721,19.1721,0,0,1-.1856-2.5621,19.733,19.733,0,0,1,39.466-.0112,20.3954,20.3954,0,0,1-.1869,2.5771l-.1994,1.4538H429.98V314.46h3.1115l-.1844-1.4426a19.5387,19.5387,0,0,1-.1556-2.36,19.733,19.733,0,0,1,39.4659-.0075,20.8627,20.8627,0,0,1-.1506,2.3746l-.1744,1.4351h34.1455a6.0933,6.0933,0,0,0,6.0868-6.0868V280.21h-.6782V267.1741ZM206.8822,312.1168H192.1531q.053-.7341.0591-1.487A22.2924,22.2924,0,0,0,169.92,288.351h-.015a22.2935,22.2935,0,0,0-22.2785,22.3126c.0022.4825.0209.9682.0559,1.4532H68.0938q.0525-.7295.0562-1.4595a22.2931,22.2931,0,1,0-44.5861.0106c.0041.4819.0238.9664.0585,1.4489H2.6852V287.1034h204.197v.89h-3.4434v9.4534h3.4434Zm0-21.5631v4.3328h-.8832v-4.3328Zm2.56,4.3328v-4.3328h11.2266v4.3328Zm13.7868-4.3328h.8835v4.3328h-.8835Zm282.8089,21.3456h-31.3q.0365-.6187.04-1.242a22.2933,22.2933,0,1,0-44.5865.0056c.0019.4107.0157.8239.0407,1.2364H427.42v.2175H309.3159q.0525-.7266.0588-1.4595a22.2932,22.2932,0,1,0-44.5864.0063c.0025.4819.0212.9675.0562,1.4532H223.2293v-14.67h3.4437v-9.4534h-3.4437v-.89H429.5452v-83.43a3.5435,3.5435,0,0,1,3.5028-3.5284l39.0447-.25a3.574,3.574,0,0,1,3.0147,1.6583l33.9205,54.2219a3.559,3.559,0,0,1,.5369,1.8849v6.9475l-7.1938-.0188v18.181h6.5156V284.94h.6782v23.4327A3.5306,3.5306,0,0,1,506.0382,311.8993Zm2.8484-31.689h-3.9554V267.1566l3.9554.0107Z"/>
	<path d="M448.1713,208.7349l-.4088,9.8421-.0019.0338.3731,32.896L500.07,252.706l-29.3113-43.9711Zm2.4939,40.2692-.3438-30.3549.3063-7.3541h18.761l25.8223,38.7375Z"/>
	<path d="M45.3321,295.7185A17.5569,17.5569,0,1,0,62.889,313.2757,17.5767,17.5767,0,0,0,45.3321,295.7185Zm0,32.5535a14.9967,14.9967,0,1,1,14.9966-14.9963A15.0135,15.0135,0,0,1,45.3321,328.272Z"/>
	<path d="M169.5286,295.7185a17.5569,17.5569,0,1,0,17.5569,17.5572A17.5768,17.5768,0,0,0,169.5286,295.7185Zm0,32.5535a14.9967,14.9967,0,1,1,14.9967-14.9963A15.0135,15.0135,0,0,1,169.5286,328.272Z"/>
	<path d="M287.6959,295.7185a17.5569,17.5569,0,1,0,17.5565,17.5572A17.5767,17.5767,0,0,0,287.6959,295.7185Zm0,32.5535a14.9967,14.9967,0,1,1,14.9963-14.9963A15.0135,15.0135,0,0,1,287.6959,328.272Z"/>
	<path d="M452.8879,295.7185a17.5569,17.5569,0,1,0,17.5566,17.5572A17.5768,17.5768,0,0,0,452.8879,295.7185Zm0,32.5535a14.9967,14.9967,0,1,1,14.9963-14.9963A15.0135,15.0135,0,0,1,452.8879,328.272Z"/>
</svg>