<svg xmlns="http://www.w3.org/2000/svg" width="512" height="512" viewBox="0 0 512 512" fill="#1d2739">
	<path d="M484.1228,261.5509l-.0022-.0039-18.926-33.0745a3.7481,3.7481,0,0,0-3.2911-1.91h-6.0682v-11.145L416.7708,188.54V227.291h.0815a1.1406,1.1406,0,0,0-.0815.4187v69.6689H41.2984v-2.7647H408.9478V181H27.1546V294.6139h5.179v3.4095a1.1353,1.1353,0,0,0-.12.5023v20.2405a1.1472,1.1472,0,0,0,1.1471,1.1471H65.8976a1.1473,1.1473,0,0,0,1.1365-1.3034,14.2814,14.2814,0,1,1,28.2973.0006,1.1471,1.1471,0,0,0,1.1365,1.3028h20.0338a1.147,1.147,0,0,0,1.1362-1.3045,14.2814,14.2814,0,1,1,28.292-.0006,1.1471,1.1471,0,0,0,1.1361,1.3051h14.9756a1.1469,1.1469,0,0,0,1.1361-1.3045,14.2815,14.2815,0,1,1,28.2921,0,1.1469,1.1469,0,0,0,1.1361,1.3045H298.66a1.1477,1.1477,0,0,0,1.1364-1.3045,14.2812,14.2812,0,1,1,28.2915,0,1.1477,1.1477,0,0,0,1.1364,1.3045h90.8731a1.1475,1.1475,0,0,0,1.1359-1.3079,14.287,14.287,0,0,1,28.2926-4.0008,14.34,14.34,0,0,1,0,4.0014,1.1474,1.1474,0,0,0,1.1359,1.3073H481.06a3.79,3.79,0,0,0,3.7852-3.7858v-51.859A5.5794,5.5794,0,0,0,484.1228,261.5509ZM419.065,192.9034l34.4761,23.7207v8.3727H419.065ZM32.3336,287.1292v5.19H29.4488V183.2942H406.6536V292.32H41.2984v-5.19Zm2.2942,10.2494v-2.7647h4.3764v2.7647Zm4.3764,2.2942v7.4617H34.6278v-7.4617ZM34.6278,292.32v-2.8963h4.3764V292.32Zm447.9234,23.8078a1.4931,1.4931,0,0,1-1.491,1.4916H451.93a16.5807,16.5807,0,0,0-18.8722-17.4316,16.5836,16.5836,0,0,0-14.23,17.4316H330.4894a16.5759,16.5759,0,1,0-33.0949,0H193.8706a16.576,16.576,0,1,0-33.0951,0H148.331a16.576,16.576,0,1,0-33.0951,0H97.7309a16.5758,16.5758,0,1,0-33.0969,0H34.5074v-8.19h6.791v-9.7559H417.9179a1.1472,1.1472,0,0,0,1.1471-1.1471V228.8568H461.91a1.4891,1.4891,0,0,1,1.2922.753l1.5129,2.6429a3.7928,3.7928,0,0,0-2.6734-1.1074H449.4232a1.1472,1.1472,0,0,0-1.1471,1.1471v29.8987a1.1475,1.1475,0,0,0,1.1477,1.1471l25.5391-.0112a3.7854,3.7854,0,0,0,3.35-5.5462l-11.2346-21.3974,15.0483,26.2989a3.2615,3.2615,0,0,1,.4246,1.5913Zm-6.2693-57.28a1.468,1.468,0,0,1-1.32,2.185l-24.392.0106V233.44h11.4676a1.4983,1.4983,0,0,1,1.3219.7971Z"/>
	<path d="M446.7907,231.1339H432.7142a4.6573,4.6573,0,0,0-4.65,4.6628v22.8786a4.6722,4.6722,0,0,0,4.6516,4.6629h14.0688a1.147,1.147,0,0,0,1.147-1.1471l.0062-29.91a1.1472,1.1472,0,0,0-1.1471-1.1473Zm-1.1532,29.91H432.72a2.373,2.373,0,0,1-2.3614-2.3687v-22.88a2.3633,2.3633,0,0,1,2.3687-2.3668h12.9165Z"/>
	<path d="M481.0658,290.0311h-5.2712a1.1472,1.1472,0,0,0-1.1471,1.1471v1.4859h-1.4909a1.1472,1.1472,0,0,0-1.1471,1.1472v6.1594a1.1471,1.1471,0,0,0,1.1471,1.1471h1.4909v1.5084a1.1472,1.1472,0,0,0,1.1471,1.1471h5.2712a1.1471,1.1471,0,0,0,1.1471-1.1471v-11.448A1.1471,1.1471,0,0,0,481.0658,290.0311Zm-1.1471,11.448h-2.977v-1.5084a1.1472,1.1472,0,0,0-1.1471-1.1471h-1.491v-3.8652h1.491a1.1472,1.1472,0,0,0,1.1471-1.1471v-1.486h2.977Z"/>
	<path d="M435.3484,305.8557a12.5722,12.5722,0,1,0,12.5721,12.5722A12.5862,12.5862,0,0,0,435.3484,305.8557Zm0,22.85a10.2779,10.2779,0,1,1,10.2779-10.2779A10.29,10.29,0,0,1,435.3484,328.7058Z"/>
	<path d="M314.0431,305.8557a12.5722,12.5722,0,1,0,12.5721,12.5722A12.5862,12.5862,0,0,0,314.0431,305.8557Zm0,22.85a10.2779,10.2779,0,1,1,10.2779-10.2779A10.29,10.29,0,0,1,314.0431,328.7058Z"/>
	<path d="M176.9135,305.8557a12.5722,12.5722,0,1,0,12.5721,12.5722A12.5862,12.5862,0,0,0,176.9135,305.8557Zm0,22.85a10.2779,10.2779,0,1,1,10.2779-10.2779A10.29,10.29,0,0,1,176.9135,328.7058Z"/>
	<path d="M132.0793,305.8557a12.5722,12.5722,0,1,0,12.5721,12.5722A12.5862,12.5862,0,0,0,132.0793,305.8557Zm0,22.85a10.2779,10.2779,0,1,1,10.278-10.2779A10.29,10.29,0,0,1,132.0793,328.7058Z"/>
	<path d="M81.0966,305.8557a12.5722,12.5722,0,1,0,12.5725,12.5722A12.5862,12.5862,0,0,0,81.0966,305.8557Zm0,22.85a10.2779,10.2779,0,1,1,10.2782-10.2779A10.29,10.29,0,0,1,81.0966,328.7058Z"/>
</svg>